<svg width="200" height="25" viewBox="0 0 200 25" fill="none" xmlns="http://www.w3.org/2000/svg">
<path d="M6.624 6.4H0.32V1.632H18.624V6.4H12.288V24H6.624V6.4ZM19.7375 12.064H31.1295V16.544H19.7375V12.064ZM40.0015 24.48C38.7642 24.48 37.4735 24.352 36.1295 24.096C34.7855 23.8613 33.7188 23.52 32.9295 23.072V18.944C33.8042 19.456 34.8495 19.8827 36.0655 20.224C37.3028 20.544 38.4335 20.704 39.4575 20.704C40.2042 20.704 40.7482 20.6507 41.0895 20.544C41.4308 20.4373 41.6015 20.224 41.6015 19.904C41.6015 19.648 41.4842 19.4453 41.2495 19.296C41.0362 19.1253 40.6308 18.9547 40.0335 18.784C39.4575 18.592 38.7855 18.3893 38.0175 18.176C36.7162 17.792 35.6922 17.3973 34.9455 16.992C34.1988 16.5867 33.6442 16.0747 33.2815 15.456C32.9188 14.8373 32.7375 14.0587 32.7375 13.12C32.7375 11.456 33.3882 10.2187 34.6895 9.408C36.0122 8.576 37.8148 8.16 40.0975 8.16C41.2068 8.16 42.3695 8.27733 43.5855 8.512C44.8228 8.74667 45.7508 9.056 46.3695 9.44V13.504C45.7295 13.0773 44.8762 12.7253 43.8095 12.448C42.7642 12.1707 41.7828 12.032 40.8655 12.032C40.1402 12.032 39.5748 12.1067 39.1695 12.256C38.7642 12.384 38.5615 12.6187 38.5615 12.96C38.5615 13.28 38.7642 13.5253 39.1695 13.696C39.5748 13.8667 40.3002 14.08 41.3455 14.336C42.0282 14.5067 42.3162 14.5813 42.2095 14.56C43.5748 14.9227 44.6308 15.328 45.3775 15.776C46.1242 16.224 46.6468 16.7573 46.9455 17.376C47.2655 17.9733 47.4255 18.7413 47.4255 19.68C47.4255 21.152 46.7855 22.3253 45.5055 23.2C44.2468 24.0533 42.4122 24.48 40.0015 24.48ZM49.6588 0.351999H55.2908V10.208C55.9734 9.52533 56.7521 9.01333 57.6267 8.672C58.5228 8.33067 59.4614 8.16 60.4428 8.16C62.5974 8.16 64.1868 8.72533 65.2108 9.856C66.2561 10.9653 66.7788 12.48 66.7788 14.4V24H61.1468V15.136C61.1468 13.408 60.3574 12.544 58.7788 12.544C58.0534 12.544 57.3921 12.7147 56.7948 13.056C56.1974 13.376 55.6961 13.8773 55.2908 14.56V24H49.6588V0.351999ZM72.5105 6.592C71.6572 6.592 70.9425 6.31467 70.3665 5.76C69.7905 5.20533 69.5025 4.50133 69.5025 3.648C69.5025 2.816 69.7905 2.12267 70.3665 1.568C70.9425 0.991999 71.6572 0.703999 72.5105 0.703999C73.3425 0.703999 74.0465 0.991999 74.6225 1.568C75.2198 2.12267 75.5185 2.816 75.5185 3.648C75.5185 4.48 75.2198 5.184 74.6225 5.76C74.0465 6.31467 73.3425 6.592 72.5105 6.592ZM69.6945 8.64H75.3265V24H69.6945V8.64ZM78.4088 8.64H83.8488V10.56C84.4461 9.87733 85.2888 9.35467 86.3767 8.992C87.4648 8.608 88.6701 8.416 89.9928 8.416V12.736C88.5848 12.736 87.3368 12.9387 86.2488 13.344C85.1821 13.7493 84.4461 14.3573 84.0408 15.168V24H78.4088V8.64ZM98.2523 24.48C96.3536 24.48 94.9136 23.9573 93.9323 22.912C92.9723 21.8453 92.4923 20.3947 92.4923 18.56V12.544H90.3163V8.64H92.4923V4.032H98.1243V8.64H101.644V12.544H98.1243V17.792C98.1243 18.624 98.2736 19.2213 98.5723 19.584C98.8923 19.9467 99.4469 20.128 100.236 20.128C100.94 20.128 101.644 19.936 102.348 19.552V23.744C101.794 24 101.196 24.1813 100.556 24.288C99.9376 24.416 99.1696 24.48 98.2523 24.48ZM109.939 24.48C108.702 24.48 107.411 24.352 106.067 24.096C104.723 23.8613 103.656 23.52 102.867 23.072V18.944C103.742 19.456 104.787 19.8827 106.003 20.224C107.24 20.544 108.371 20.704 109.395 20.704C110.142 20.704 110.686 20.6507 111.027 20.544C111.368 20.4373 111.539 20.224 111.539 19.904C111.539 19.648 111.422 19.4453 111.187 19.296C110.974 19.1253 110.568 18.9547 109.971 18.784C109.395 18.592 108.723 18.3893 107.955 18.176C106.654 17.792 105.63 17.3973 104.883 16.992C104.136 16.5867 103.582 16.0747 103.219 15.456C102.856 14.8373 102.675 14.0587 102.675 13.12C102.675 11.456 103.326 10.2187 104.627 9.408C105.95 8.576 107.752 8.16 110.035 8.16C111.144 8.16 112.307 8.27733 113.523 8.512C114.76 8.74667 115.688 9.056 116.307 9.44V13.504C115.667 13.0773 114.814 12.7253 113.747 12.448C112.702 12.1707 111.72 12.032 110.803 12.032C110.078 12.032 109.512 12.1067 109.107 12.256C108.702 12.384 108.499 12.6187 108.499 12.96C108.499 13.28 108.702 13.5253 109.107 13.696C109.512 13.8667 110.238 14.08 111.283 14.336C111.966 14.5067 112.254 14.5813 112.147 14.56C113.512 14.9227 114.568 15.328 115.315 15.776C116.062 16.224 116.584 16.7573 116.883 17.376C117.203 17.9733 117.363 18.7413 117.363 19.68C117.363 21.152 116.723 22.3253 115.443 23.2C114.184 24.0533 112.35 24.48 109.939 24.48ZM135.655 6.4H129.351V1.632H147.655V6.4H141.319V24H135.655V6.4ZM154.745 24.48C151.737 24.48 149.369 23.776 147.641 22.368C145.935 20.96 145.081 18.9653 145.081 16.384C145.081 13.8453 145.839 11.84 147.353 10.368C148.889 8.896 151.097 8.16 153.977 8.16C155.812 8.16 157.38 8.512 158.681 9.216C160.004 9.89867 160.996 10.848 161.657 12.064C162.34 13.2587 162.681 14.6133 162.681 16.128V18.208H150.425C150.639 19.0613 151.172 19.68 152.025 20.064C152.879 20.448 154.041 20.64 155.513 20.64C156.516 20.64 157.54 20.5547 158.585 20.384C159.652 20.2133 160.569 19.9787 161.337 19.68V23.392C160.548 23.712 159.556 23.968 158.361 24.16C157.188 24.3733 155.983 24.48 154.745 24.48ZM157.369 14.688C157.284 13.856 156.943 13.2053 156.345 12.736C155.748 12.2667 154.927 12.032 153.881 12.032C152.857 12.032 152.047 12.2773 151.449 12.768C150.852 13.2373 150.511 13.8773 150.425 14.688H157.369ZM173.421 24.48C170.605 24.48 168.375 23.776 166.733 22.368C165.09 20.96 164.269 18.9547 164.269 16.352C164.269 13.7493 165.09 11.7333 166.733 10.304C168.397 8.87467 170.637 8.16 173.453 8.16C174.711 8.16 175.885 8.288 176.973 8.544C178.082 8.77867 178.999 9.12 179.725 9.568V13.952C178.423 13.0133 176.706 12.544 174.573 12.544C173.207 12.544 172.109 12.864 171.277 13.504C170.466 14.1227 170.061 15.072 170.061 16.352C170.061 17.6533 170.466 18.6133 171.277 19.232C172.087 19.8293 173.175 20.128 174.541 20.128C176.61 20.128 178.402 19.6373 179.917 18.656V23.008C178.295 23.9893 176.13 24.48 173.421 24.48ZM182.159 0.351999H187.791V10.208C188.473 9.52533 189.252 9.01333 190.127 8.672C191.023 8.33067 191.961 8.16 192.943 8.16C195.097 8.16 196.687 8.72533 197.711 9.856C198.756 10.9653 199.279 12.48 199.279 14.4V24H193.647V15.136C193.647 13.408 192.857 12.544 191.279 12.544C190.553 12.544 189.892 12.7147 189.295 13.056C188.697 13.376 188.196 13.8773 187.791 14.56V24H182.159V0.351999Z" fill="white"/>
</svg>
